<?xml version="1.0" encoding="utf-8"?>
<!-- Generator: Adobe Illustrator 28.0.0, SVG Export Plug-In . SVG Version: 6.00 Build 0)  -->
<svg version="1.1" id="Layer_1" xmlns="http://www.w3.org/2000/svg" xmlns:xlink="http://www.w3.org/1999/xlink" x="0px" y="0px"
	 viewBox="0 0 873.97 196.56" style="enable-background:new 0 0 873.97 196.56;" xml:space="preserve">
<style type="text/css">
	.st0{fill:#FFFFFF;}
	.st1{fill:#90D5FF;}
	.st2{fill:#CCCDCE;}
</style>
<g>
	<g>
		<g>
			<polygon class="st0" points="153.54,172.05 0,187.49 0,9.52 153.54,24.94 15.86,28.48 15.86,170.38 			"/>
			<polygon class="st0" points="152.41,98.51 10.73,102.43 10.73,94.58 152.41,98.51 			"/>
			<g>
				<rect x="85.12" y="22.48" class="st0" width="7.85" height="152.04"/>
			</g>
			<polygon class="st1" points="2.17,196.56 168.51,179.89 168.51,18.36 0,0 195.9,0 195.9,196.56 			"/>
		</g>
		<g>
			<polygon class="st2" points="68.15,36.74 26.3,38.27 26.3,65.73 			"/>
			<polygon class="st2" points="68.15,159.82 26.3,158.28 26.3,130.83 			"/>
		</g>
	</g>
	<g>
		<g>
			<path class="st0" d="M244.73,122.75V31.78h62.05c5.43,0,10.3,0.68,14.59,2.04c4.29,1.36,7.94,3.36,10.96,5.99
				c3.01,2.63,5.33,5.84,6.94,9.62c1.61,3.78,2.42,8.05,2.42,12.8c0,4.84-0.81,9.15-2.42,12.93c-1.61,3.78-3.93,6.99-6.94,9.62
				c-3.02,2.63-6.67,4.63-10.96,5.99c-4.29,1.36-9.15,2.04-14.59,2.04h-37.71v29.94H244.73z M269.07,74.2h35.42
				c2.38,0,4.46-0.49,6.24-1.46c1.78-0.98,3.19-2.36,4.2-4.14c1.02-1.78,1.53-3.91,1.53-6.37c0-3.74-1.1-6.67-3.31-8.79
				c-2.21-2.12-5.1-3.19-8.66-3.19h-35.42V74.2z"/>
			<path class="st0" d="M368.83,124.53c-8.49,0-15.14-1.74-19.94-5.22c-4.8-3.48-7.2-8.28-7.2-14.4c0-3.91,1.02-7.26,3.06-10.07
				c2.04-2.8,5.1-5.1,9.17-6.88c4.08-1.78,9.22-2.93,15.42-3.44l24.21-2.55c1.95-0.17,3.42-0.66,4.4-1.46
				c0.98-0.81,1.46-1.85,1.46-3.12v-0.13c0-1.53-0.64-2.82-1.91-3.89c-1.27-1.06-3.04-1.87-5.29-2.42
				c-2.25-0.55-4.95-0.83-8.09-0.83c-4.76,0-8.49,0.53-11.21,1.59c-2.72,1.06-4.38,2.65-4.97,4.78h-23.19
				c0.85-4.59,2.93-8.43,6.24-11.53c3.31-3.1,7.79-5.46,13.44-7.07c5.65-1.61,12.38-2.42,20.19-2.42c8.58,0,15.67,0.91,21.28,2.74
				c5.61,1.83,9.81,4.61,12.61,8.35c2.8,3.74,4.2,8.45,4.2,14.14v42.04h-22.17v-19.11l2.42,2.93c-1.95,3.99-4.5,7.31-7.64,9.94
				c-3.14,2.63-6.9,4.63-11.28,5.99C379.68,123.85,374.61,124.53,368.83,124.53z M377.24,109.24c3.14,0,6.05-0.4,8.73-1.21
				c2.68-0.81,5.03-1.91,7.07-3.31c2.04-1.4,3.61-3.04,4.71-4.9c1.1-1.87,1.66-3.86,1.66-5.99v-8.54l3.69,5.35
				c-1.27,0.76-2.97,1.45-5.1,2.04c-2.12,0.6-4.89,1.1-8.28,1.53l-16.56,2.04c-2.55,0.34-4.44,1-5.67,1.97
				c-1.23,0.98-1.85,2.36-1.85,4.14c0,2.12,1,3.8,2.99,5.03C370.63,108.63,373.5,109.24,377.24,109.24z"/>
			<path class="st0" d="M432.31,122.75V57.26h23.32v18.35l-2.17-3.69c1.78-3.4,4.18-6.33,7.2-8.79c3.01-2.46,6.6-4.35,10.77-5.67
				c4.16-1.32,8.79-1.97,13.89-1.97c5.1,0,9.53,0.68,13.31,2.04c3.78,1.36,6.96,3.4,9.56,6.12c2.59,2.72,4.54,6.01,5.86,9.87
				c1.32,3.87,1.97,8.22,1.97,13.06v36.18h-23.44V91.4c0-3.91-0.64-7.24-1.91-10c-1.27-2.76-3.18-4.88-5.73-6.37
				c-2.55-1.48-5.78-2.23-9.68-2.23c-4.16,0-7.71,0.79-10.64,2.36c-2.93,1.57-5.16,3.78-6.69,6.63c-1.53,2.85-2.29,6.18-2.29,10
				v30.96H432.31z"/>
			<path class="st0" d="M565.76,124.53c-9.26,0-17.16-1.45-23.7-4.33c-6.54-2.89-11.53-6.94-14.97-12.17
				c-3.44-5.22-5.16-11.23-5.16-18.03c0-4.16,0.61-8,1.85-11.53c1.23-3.52,3.06-6.71,5.48-9.56c2.42-2.84,5.41-5.27,8.98-7.26
				c3.57-1.99,7.64-3.52,12.23-4.59c4.59-1.06,9.64-1.59,15.16-1.59c6.79,0,12.85,0.76,18.16,2.29c5.31,1.53,9.79,3.93,13.44,7.2
				c3.65,3.27,6.41,7.37,8.28,12.3c1.87,4.93,2.76,10.79,2.68,17.58h-71.35V83.12h47.78c-0.43-2.04-1.17-3.82-2.23-5.35
				c-1.06-1.53-2.42-2.82-4.08-3.89c-1.66-1.06-3.55-1.85-5.67-2.36c-2.12-0.51-4.5-0.76-7.14-0.76c-2.72,0-5.2,0.32-7.45,0.96
				c-2.25,0.64-4.23,1.51-5.92,2.61c-1.7,1.11-3.08,2.44-4.14,4.01c-1.06,1.57-1.89,3.33-2.48,5.29c-0.59,1.96-0.89,4.08-0.89,6.37
				c0,3.74,0.78,7.05,2.36,9.94c1.57,2.89,3.95,5.16,7.13,6.82c3.19,1.66,7.11,2.48,11.79,2.48c4.08,0,7.58-0.49,10.51-1.46
				c2.93-0.98,5.16-2.44,6.69-4.4h24.21c-1.02,3.82-3.1,7.35-6.24,10.58c-3.14,3.23-7.58,5.8-13.31,7.71
				C582.01,123.58,574.68,124.53,565.76,124.53z"/>
			<path class="st1" d="M614.04,122.75V52.8c0-4.16,0.87-7.84,2.61-11.02c1.74-3.19,4.16-5.65,7.26-7.39
				c3.1-1.74,6.82-2.61,11.15-2.61h16.82v11.21H639.9c-3.06,0-5.48,0.98-7.26,2.93c-1.78,1.95-2.68,4.54-2.68,7.77v69.06H614.04z
				 M627.93,68.34V57.26h23.95v11.08H627.93z"/>
			<path class="st1" d="M657.92,122.75V57.26h15.93v22.3l-1.15-0.38c1.1-5.44,2.78-9.73,5.03-12.87c2.25-3.14,5.05-5.43,8.41-6.88
				c3.35-1.44,7.15-2.17,11.4-2.17h7.14v13.63h-8.03c-4.5,0-8.47,1.11-11.91,3.31c-3.44,2.21-6.12,5.14-8.03,8.79
				c-1.91,3.65-2.87,7.73-2.87,12.23v27.52H657.92z"/>
			<path class="st1" d="M746.59,124.53c-8.49,0-15.88-1.45-22.17-4.33c-6.29-2.89-11.15-6.92-14.59-12.1
				c-3.44-5.18-5.16-11.25-5.16-18.22c0-4.08,0.64-7.9,1.91-11.47c1.27-3.57,3.1-6.75,5.48-9.56c2.38-2.8,5.27-5.2,8.66-7.2
				c3.4-1.99,7.28-3.52,11.66-4.59c4.37-1.06,9.19-1.59,14.46-1.59c6.03,0,11.57,0.74,16.63,2.23c5.05,1.49,9.38,3.78,13,6.88
				c3.61,3.1,6.35,7.07,8.22,11.91c1.87,4.84,2.72,10.62,2.55,17.33h-72.62v-9.81h56.31c-0.43-2.89-1.27-5.39-2.55-7.52
				c-1.27-2.12-2.97-3.91-5.1-5.35c-2.12-1.44-4.57-2.53-7.33-3.25c-2.76-0.72-5.84-1.08-9.24-1.08c-3.4,0-6.48,0.36-9.24,1.08
				c-2.76,0.72-5.2,1.76-7.33,3.12c-2.12,1.36-3.89,2.99-5.29,4.91c-1.4,1.91-2.46,4.04-3.19,6.37c-0.72,2.34-1.08,4.86-1.08,7.58
				c0,4.5,0.98,8.52,2.93,12.04c1.95,3.53,4.9,6.29,8.85,8.28c3.95,2,8.81,2.99,14.59,2.99c5.78,0,10.49-0.76,14.14-2.29
				c3.65-1.53,6.41-3.74,8.28-6.63h16.56c-1.27,3.82-3.46,7.24-6.56,10.26c-3.1,3.02-7.35,5.44-12.74,7.26
				C761.27,123.62,754.58,124.53,746.59,124.53z"/>
			<path class="st1" d="M833.31,124.53c-8.49,0-15.88-1.45-22.17-4.33c-6.29-2.89-11.15-6.92-14.59-12.1
				c-3.44-5.18-5.16-11.25-5.16-18.22c0-4.08,0.64-7.9,1.91-11.47c1.27-3.57,3.1-6.75,5.48-9.56c2.38-2.8,5.27-5.2,8.66-7.2
				c3.4-1.99,7.28-3.52,11.66-4.59c4.37-1.06,9.19-1.59,14.46-1.59c6.03,0,11.57,0.74,16.63,2.23c5.05,1.49,9.38,3.78,13,6.88
				c3.61,3.1,6.35,7.07,8.22,11.91c1.87,4.84,2.72,10.62,2.55,17.33h-72.62v-9.81h56.31c-0.43-2.89-1.27-5.39-2.55-7.52
				c-1.27-2.12-2.97-3.91-5.1-5.35c-2.12-1.44-4.57-2.53-7.33-3.25c-2.76-0.72-5.84-1.08-9.24-1.08c-3.4,0-6.48,0.36-9.24,1.08
				c-2.76,0.72-5.2,1.76-7.33,3.12c-2.12,1.36-3.89,2.99-5.29,4.91c-1.4,1.91-2.46,4.04-3.19,6.37c-0.72,2.34-1.08,4.86-1.08,7.58
				c0,4.5,0.98,8.52,2.93,12.04c1.95,3.53,4.9,6.29,8.85,8.28c3.95,2,8.81,2.99,14.59,2.99c5.78,0,10.49-0.76,14.14-2.29
				c3.65-1.53,6.41-3.74,8.28-6.63h16.56c-1.27,3.82-3.46,7.24-6.56,10.26c-3.1,3.02-7.35,5.44-12.74,7.26
				C847.98,123.62,841.29,124.53,833.31,124.53z"/>
		</g>
		<g>
			<path class="st2" d="M538.57,164.78c-3.35,0-6.28-0.55-8.78-1.65c-2.5-1.1-4.43-2.67-5.8-4.72c-1.37-2.04-2.06-4.46-2.06-7.25
				c0-1.39,0.17-2.7,0.51-3.91c0.34-1.21,0.86-2.33,1.54-3.34c0.69-1.02,1.51-1.92,2.48-2.7c0.97-0.78,2.07-1.45,3.3-2
				c1.24-0.55,2.59-0.97,4.06-1.25c1.47-0.28,3.05-0.42,4.74-0.42c3.38,0,6.31,0.56,8.79,1.67c2.48,1.11,4.41,2.69,5.78,4.72
				c1.37,2.03,2.06,4.44,2.06,7.23c0,1.4-0.17,2.7-0.51,3.91c-0.34,1.21-0.86,2.33-1.54,3.34c-0.69,1.02-1.51,1.92-2.48,2.7
				c-0.97,0.78-2.07,1.45-3.3,2c-1.24,0.55-2.59,0.97-4.06,1.25C541.83,164.64,540.26,164.78,538.57,164.78z M538.57,160.22
				c1.08,0,2.08-0.09,3.01-0.28c0.93-0.18,1.79-0.46,2.57-0.83c0.78-0.37,1.47-0.81,2.07-1.34c0.6-0.53,1.11-1.13,1.54-1.8
				c0.43-0.67,0.75-1.42,0.95-2.24c0.21-0.82,0.31-1.68,0.31-2.59c0-1.86-0.42-3.47-1.27-4.83c-0.84-1.36-2.05-2.41-3.62-3.14
				c-1.57-0.73-3.43-1.1-5.58-1.1c-1.08,0-2.08,0.09-3.01,0.28c-0.93,0.18-1.79,0.46-2.57,0.83c-0.78,0.37-1.48,0.81-2.07,1.34
				c-0.6,0.53-1.11,1.13-1.54,1.8c-0.43,0.67-0.75,1.41-0.95,2.22c-0.21,0.81-0.31,1.68-0.31,2.61c0,1.84,0.42,3.44,1.27,4.81
				c0.84,1.37,2.06,2.42,3.64,3.16C534.58,159.86,536.44,160.22,538.57,160.22z M555.05,164.26c-1.27,0-2.4-0.18-3.38-0.55
				c-0.98-0.37-1.96-1.02-2.94-1.95l-8.56-7.97l3.16-3.3l8.15,7.64c0.69,0.64,1.42,1.11,2.2,1.41c0.78,0.31,1.62,0.46,2.5,0.46h1.8
				v4.26H555.05z"/>
			<path class="st2" d="M598.53,164.78c-2.91,0-5.42-0.47-7.53-1.41c-2.11-0.94-3.73-2.31-4.87-4.11c-1.14-1.8-1.71-4.01-1.71-6.63
				v-14.58h5.91v14.54c0,1.54,0.33,2.9,0.99,4.06c0.66,1.16,1.62,2.06,2.86,2.7c1.25,0.64,2.75,0.95,4.52,0.95
				c1.79,0,3.28-0.31,4.48-0.94c1.2-0.62,2.11-1.52,2.74-2.68c0.62-1.16,0.94-2.52,0.94-4.06v-14.58h5.36v14.58
				c0,2.59-0.54,4.8-1.63,6.61c-1.09,1.81-2.66,3.19-4.7,4.13C603.85,164.31,601.4,164.78,598.53,164.78z"/>
			<path class="st2" d="M655.56,164.78c-3.35,0-6.28-0.55-8.78-1.65c-2.5-1.1-4.43-2.67-5.8-4.72c-1.37-2.04-2.06-4.46-2.06-7.25
				c0-1.39,0.17-2.7,0.51-3.91c0.34-1.21,0.86-2.33,1.54-3.34c0.69-1.02,1.51-1.92,2.48-2.7c0.97-0.78,2.07-1.45,3.3-2
				c1.24-0.55,2.59-0.97,4.06-1.25c1.47-0.28,3.05-0.42,4.74-0.42c3.38,0,6.31,0.56,8.79,1.67c2.48,1.11,4.41,2.69,5.78,4.72
				c1.37,2.03,2.06,4.44,2.06,7.23c0,1.4-0.17,2.7-0.51,3.91c-0.34,1.21-0.86,2.33-1.54,3.34c-0.69,1.02-1.51,1.92-2.48,2.7
				c-0.97,0.78-2.07,1.45-3.3,2c-1.24,0.55-2.59,0.97-4.06,1.25C658.83,164.64,657.25,164.78,655.56,164.78z M655.56,160.22
				c1.08,0,2.08-0.09,3.01-0.28c0.93-0.18,1.79-0.46,2.57-0.83c0.78-0.37,1.47-0.81,2.07-1.34c0.6-0.53,1.11-1.13,1.54-1.8
				c0.43-0.67,0.75-1.42,0.95-2.24c0.21-0.82,0.31-1.68,0.31-2.59c0-1.86-0.42-3.47-1.27-4.83c-0.84-1.36-2.05-2.41-3.62-3.14
				c-1.57-0.73-3.43-1.1-5.58-1.1c-1.08,0-2.08,0.09-3.01,0.28c-0.93,0.18-1.79,0.46-2.57,0.83c-0.78,0.37-1.48,0.81-2.07,1.34
				c-0.6,0.53-1.11,1.13-1.54,1.8c-0.43,0.67-0.75,1.41-0.95,2.22c-0.21,0.81-0.31,1.68-0.31,2.61c0,1.84,0.42,3.44,1.27,4.81
				c0.84,1.37,2.06,2.42,3.64,3.16C651.57,159.86,653.43,160.22,655.56,160.22z"/>
			<path class="st2" d="M707.92,164.26v-21.7h-11.27v-4.52h28.46v4.52h-11.27v21.7H707.92z"/>
			<path class="st2" d="M751.8,164.26v-26.22h5.91v26.22H751.8z"/>
			<path class="st2" d="M786.17,164.26v-26.22h6.79L811,159.16l-1.65,0.44v-21.56h5.4v26.22h-6.79l-17.74-20.78l1.32-0.55v21.34
				H786.17z"/>
			<path class="st2" d="M856.86,164.78c-2.08,0-4.03-0.32-5.86-0.95c-1.82-0.64-3.43-1.54-4.81-2.72c-1.38-1.17-2.47-2.61-3.25-4.3
				c-0.78-1.69-1.18-3.57-1.18-5.66c0-1.39,0.17-2.7,0.51-3.91c0.34-1.21,0.86-2.33,1.54-3.34c0.69-1.02,1.51-1.92,2.48-2.7
				c0.97-0.78,2.07-1.45,3.3-2c1.24-0.55,2.59-0.97,4.08-1.25c1.48-0.28,3.07-0.42,4.76-0.42c2.15,0,4.12,0.21,5.89,0.64
				c1.77,0.43,3.34,1.03,4.68,1.8c1.35,0.77,2.44,1.7,3.27,2.77c0.83,1.08,1.36,2.27,1.58,3.56h-6.35
				c-0.29-0.73-0.84-1.43-1.63-2.07c-0.8-0.65-1.81-1.17-3.05-1.56c-1.24-0.39-2.7-0.59-4.39-0.59c-1.08,0-2.09,0.09-3.03,0.28
				c-0.94,0.18-1.81,0.46-2.59,0.83c-0.78,0.37-1.48,0.81-2.07,1.34c-0.6,0.53-1.11,1.13-1.52,1.8c-0.42,0.67-0.73,1.41-0.95,2.22
				c-0.22,0.81-0.33,1.68-0.33,2.61c0,1.86,0.42,3.47,1.27,4.83c0.84,1.36,2.05,2.41,3.62,3.14c1.57,0.73,3.44,1.1,5.62,1.1
				c1.4,0,2.69-0.17,3.89-0.51c1.2-0.34,2.24-0.85,3.12-1.52c0.88-0.67,1.58-1.52,2.09-2.53c0.51-1.02,0.81-2.19,0.88-3.51
				l1.73,2.35h-11.6v-4.11h15.42v13.88h-5.62l-0.04-6.5l0.55,0.84c-0.66,1.25-1.54,2.33-2.64,3.25c-1.1,0.92-2.43,1.63-3.98,2.15
				C860.69,164.52,858.89,164.78,856.86,164.78z"/>
		</g>
	</g>
</g>
</svg>
